<svg width="84" height="84" viewBox="0 0 84 84" fill="none" xmlns="http://www.w3.org/2000/svg">
<path d="M31.1875 15.3927L22.7083 29.2679C22.1262 30.2203 22.4364 31.4648 23.3974 32.0327L30.9084 36.471C31.8669 37.0374 33.1035 36.712 33.6591 35.747L41.3454 22.3971C41.7156 21.7541 42.6325 21.724 43.044 22.3414L48.1498 30L46.0438 31.2636C45.1901 31.7758 45.5277 33.0849 46.5226 33.1205L55.9298 33.4564C56.6789 33.4832 57.38 33.0889 57.7462 32.4349L62.5609 23.8373C63.0421 22.978 62.1221 22.0138 61.2411 22.4543L59.1498 23.5L53.6341 15.2265C52.7068 13.8355 51.1456 13 49.4739 13H35.454C33.7121 13 32.0958 13.9065 31.1875 15.3927Z" fill="#2688EB"/>
<path d="M73.3588 49.313L65.5822 35.0321C65.0484 34.0519 63.8155 33.6982 62.8433 34.2465L55.2441 38.5321C54.2743 39.079 53.9378 40.3126 54.4957 41.2762L62.2139 54.6077C62.5856 55.2498 62.1532 56.0589 61.4128 56.1067L52.2274 56.6991L52.1861 54.2434C52.1693 53.248 50.8668 52.8858 50.3386 53.7296L45.344 61.7086C44.9463 62.3439 44.9372 63.1482 45.3205 63.7924L50.3589 72.2608C50.8625 73.1072 52.1575 72.7925 52.2165 71.8094L52.3566 69.4753L62.2795 68.8354C63.9478 68.7278 65.4519 67.7935 66.2878 66.3458L73.2977 54.2042C74.1687 52.6957 74.1918 50.8427 73.3588 49.313Z" fill="#2688EB"/>
<path d="M22.5533 70.5887L38.8092 70.9944C39.925 71.0222 40.8477 70.1314 40.859 69.0152L40.9472 60.2914C40.9584 59.178 40.0583 58.2699 38.9449 58.2712L23.5404 58.2896C22.7984 58.2905 22.3139 57.5115 22.6428 56.8464L26.7224 48.5954L28.8697 49.7874C29.7402 50.2706 30.7051 49.3237 30.2384 48.4443L25.8258 40.1294C25.4744 39.4674 24.7824 39.0573 24.0329 39.0671L14.1799 39.1963C13.195 39.2092 12.8201 40.4881 13.642 41.0308L15.5933 42.3191L11.186 51.2325C10.4451 52.7311 10.5021 54.5009 11.338 55.9487L18.3479 68.0903C19.2188 69.5987 20.812 70.5453 22.5533 70.5887Z" fill="#2688EB"/>
</svg>
