<svg width="28" height="28" viewBox="0 0 28 28" fill="none" xmlns="http://www.w3.org/2000/svg">
<path d="M8 9.72C8 8.58102 8 8.01153 8.22517 7.57805C8.41492 7.21276 8.71276 6.91492 9.07805 6.72517C9.51153 6.5 10.081 6.5 11.22 6.5H16.78C17.919 6.5 18.4885 6.5 18.9219 6.72517C19.2872 6.91492 19.5851 7.21276 19.7748 7.57805C20 8.01153 20 8.58102 20 9.72V21.78C20 22.919 20 23.4885 19.7748 23.9219C19.5851 24.2872 19.2872 24.5851 18.9219 24.7748C18.4885 25 17.919 25 16.78 25H11.22C10.081 25 9.51153 25 9.07805 24.7748C8.71276 24.5851 8.41492 24.2872 8.22517 23.9219C8 23.4885 8 22.919 8 21.78V9.72Z" stroke="#2688EB" stroke-opacity="0.01" stroke-width="0.1"/>
<rect x="7.05" y="15.05" width="4.9" height="1.9" rx="0.95" stroke="#2688EB" stroke-opacity="0.01" stroke-width="0.1"/>
<rect x="7.05" y="19.05" width="6.9" height="1.9" rx="0.95" stroke="#2688EB" stroke-opacity="0.01" stroke-width="0.1"/>
<path d="M10 5.2C10 4.07989 10 3.51984 10.218 3.09202C10.4097 2.71569 10.7157 2.40973 11.092 2.21799C11.5198 2 12.0799 2 13.2 2H14.8C15.9201 2 16.4802 2 16.908 2.21799C17.2843 2.40973 17.5903 2.71569 17.782 3.09202C18 3.51984 18 4.07989 18 5.2V6H10V5.2Z" stroke="#2688EB" stroke-opacity="0.01" stroke-width="0.1"/>
</svg>
