<svg width="14" height="25" viewBox="0 0 14 25" fill="none" xmlns="http://www.w3.org/2000/svg">
<path d="M3 6H2V7H3V6ZM4 15.5C4.55228 15.5 5 15.0523 5 14.5C5 13.9477 4.55228 13.5 4 13.5V15.5ZM5.5 20.25C6.05228 20.25 6.5 19.8023 6.5 19.25C6.5 18.6977 6.05228 18.25 5.5 18.25V20.25ZM3 25H11V23H3V25ZM14 22V8H12V22H14ZM11 5H3V7H11V5ZM4 6V3H2V6H4ZM5 2H9V0H5V2ZM10 3V6H12V3H10ZM0 8V14.5H2V8H0ZM1 15.5H4V13.5H1V15.5ZM0 14.5V19.25H2V14.5H0ZM0 19.25V22H2V19.25H0ZM1 20.25H5.5V18.25H1V20.25ZM9 2C9.55228 2 10 2.44772 10 3H12C12 1.34315 10.6569 0 9 0V2ZM14 8C14 6.34315 12.6569 5 11 5V7C11.5523 7 12 7.44772 12 8H14ZM11 25C12.6569 25 14 23.6569 14 22H12C12 22.5523 11.5523 23 11 23V25ZM4 3C4 2.44772 4.44772 2 5 2V0C3.34315 0 2 1.34315 2 3H4ZM3 23C2.44772 23 2 22.5523 2 22H0C0 23.6569 1.34315 25 3 25V23ZM3 5C1.34315 5 0 6.34315 0 8H2C2 7.44772 2.44772 7 3 7V5Z" fill="black"/>
</svg>
