<svg width="31" height="32" viewBox="0 0 31 32" fill="none" xmlns="http://www.w3.org/2000/svg">
<path d="M12.5533 31.5887L28.8092 31.9944C29.925 32.0222 30.8477 31.1314 30.859 30.0152L30.9472 21.2914C30.9584 20.178 30.0583 19.2699 28.9449 19.2712L13.5404 19.2896C12.7984 19.2905 12.3139 18.5115 12.6428 17.8464L16.7224 9.59537L18.8697 10.7874C19.7402 11.2706 20.7051 10.3237 20.2384 9.44433L15.8258 1.12943C15.4744 0.467364 14.7824 0.0573216 14.0329 0.0671453L4.17987 0.19633C3.19502 0.209244 2.82005 1.48807 3.642 2.03076L5.59327 3.31909L1.18604 12.2325C0.445068 13.7311 0.502076 15.5009 1.33796 16.9487L8.34791 29.0903C9.21883 30.5987 10.812 31.5453 12.5533 31.5887Z" fill="#2688EB"/>
</svg>
