<svg width="28" height="28" viewBox="0 0 28 28" fill="none" xmlns="http://www.w3.org/2000/svg">
<path d="M8 9.72C8 8.58102 8 8.01153 8.22517 7.57805C8.41492 7.21276 8.71276 6.91492 9.07805 6.72517C9.51153 6.5 10.081 6.5 11.22 6.5H16.78C17.919 6.5 18.4885 6.5 18.9219 6.72517C19.2872 6.91492 19.5851 7.21276 19.7748 7.57805C20 8.01153 20 8.58102 20 9.72V21.78C20 22.919 20 23.4885 19.7748 23.9219C19.5851 24.2872 19.2872 24.5851 18.9219 24.7748C18.4885 25 17.919 25 16.78 25H11.22C10.081 25 9.51153 25 9.07805 24.7748C8.71276 24.5851 8.41492 24.2872 8.22517 23.9219C8 23.4885 8 22.919 8 21.78V9.72Z" stroke="#62A1E8" stroke-width="2"/>
<path d="M9.94701 2.21194C10.0553 1.77861 10.1095 1.56195 10.2303 1.40062C10.3369 1.25828 10.4795 1.14694 10.6434 1.07806C10.8292 1 11.0526 1 11.4992 1H16.5008C16.9474 1 17.1708 1 17.3566 1.07806C17.5205 1.14694 17.6631 1.25828 17.7697 1.40062C17.8905 1.56195 17.9447 1.77861 18.053 2.21194L19 6H14H9L9.94701 2.21194Z" stroke="#62A1E8" stroke-width="2"/>
<path d="M8 13H20V18H8" stroke="#62A1E8" stroke-width="2"/>
</svg>
