<svg width="16" height="28" viewBox="0 0 16 28" fill="none" xmlns="http://www.w3.org/2000/svg">
<path d="M2.25773 28.7373L1.79675 29.6247L2.25773 28.7373ZM1.2627 27.7423L0.375291 28.2032L1.2627 27.7423ZM14.7373 27.7423L15.6247 28.2032L14.7373 27.7423ZM13.7423 28.7373L14.2032 29.6247L13.7423 28.7373ZM13.7423 7.67937L14.2032 6.79195L13.7423 7.67937ZM14.7373 8.67439L15.6247 8.21342L14.7373 8.67439ZM2.25773 7.67937L1.79675 6.79195L2.25773 7.67937ZM1.2627 8.67439L0.375291 8.21342L1.2627 8.67439ZM13.8333 6.83333V7.83333H15.1141L14.8035 6.5908L13.8333 6.83333ZM2.16667 6.83333L1.19653 6.5908L0.885892 7.83333H2.16667V6.83333ZM11.916 1.09107L11.5287 2.01301L11.916 1.09107ZM12.7285 2.41393L11.7583 2.65647L11.7583 2.65647L12.7285 2.41393ZM12.398 1.46739L11.5975 2.06677L12.398 1.46739ZM4.08401 1.09107L4.47135 2.01301L4.08401 1.09107ZM3.27152 2.41393L4.24166 2.65647L3.27152 2.41393ZM3.60203 1.46739L4.4025 2.06677L3.60203 1.46739ZM1.03567 10.1058L0.0389876 10.0244L0.0389875 10.0244L1.03567 10.1058ZM1 11.6884L2 11.6884L2 11.6883L1 11.6884ZM15 11.6884L14 11.6884V11.6884H15ZM14.9643 10.1058L15.961 10.0244L15.961 10.0244L14.9643 10.1058ZM15 15H16V14H15V15ZM15 20.8333V21.8333H16V20.8333H15ZM4.75667 8.41667H11.2433V6.41667H4.75667V8.41667ZM14 11.1733V25.2433H16V11.1733H14ZM11.2433 28H4.75667V30H11.2433V28ZM2 25.2433V11.1733H2.25504e-06V25.2433H2ZM4.75667 28C4.07548 28 3.62573 27.9992 3.2813 27.9706C2.94884 27.943 2.80504 27.8947 2.7187 27.8499L1.79675 29.6247C2.21614 29.8426 2.6574 29.9257 3.11578 29.9637C3.56218 30.0008 4.10905 30 4.75667 30V28ZM2.25504e-06 25.2433C2.25504e-06 25.891 -0.000801343 26.4378 0.0362705 26.8842C0.0743365 27.3426 0.157435 27.7839 0.375291 28.2032L2.15012 27.2813C2.10527 27.195 2.05702 27.0512 2.02941 26.7187C2.00081 26.3743 2 25.9245 2 25.2433H2.25504e-06ZM2.7187 27.8499C2.47518 27.7234 2.27662 27.5248 2.15012 27.2813L0.375291 28.2032C0.691543 28.8121 1.18794 29.3085 1.79675 29.6247L2.7187 27.8499ZM14 25.2433C14 25.9245 13.9992 26.3743 13.9706 26.7187C13.943 27.0512 13.8947 27.195 13.8499 27.2813L15.6247 28.2032C15.8426 27.7839 15.9257 27.3426 15.9637 26.8842C16.0008 26.4378 16 25.891 16 25.2433H14ZM11.2433 30C11.891 30 12.4378 30.0008 12.8842 29.9637C13.3426 29.9257 13.7839 29.8426 14.2032 29.6247L13.2813 27.8499C13.195 27.8947 13.0512 27.943 12.7187 27.9706C12.3743 27.9992 11.9245 28 11.2433 28V30ZM13.8499 27.2813C13.7234 27.5248 13.5248 27.7234 13.2813 27.8499L14.2032 29.6247C14.8121 29.3085 15.3085 28.8121 15.6247 28.2032L13.8499 27.2813ZM11.2433 8.41667C11.9245 8.41667 12.3743 8.41747 12.7187 8.44607C13.0512 8.47368 13.195 8.52194 13.2813 8.56678L14.2032 6.79195C13.7839 6.5741 13.3426 6.491 12.8842 6.45293C12.4378 6.41586 11.891 6.41667 11.2433 6.41667V8.41667ZM16 11.1733C16 10.5257 16.0008 9.97885 15.9637 9.53244C15.9257 9.07407 15.8426 8.63281 15.6247 8.21342L13.8499 9.13537C13.8947 9.2217 13.943 9.3655 13.9706 9.69797C13.9992 10.0424 14 10.4921 14 11.1733H16ZM13.2813 8.56678C13.5248 8.69328 13.7234 8.89184 13.8499 9.13537L15.6247 8.21342C15.3085 7.60461 14.8121 7.10821 14.2032 6.79195L13.2813 8.56678ZM4.75667 6.41667C4.10905 6.41667 3.56218 6.41586 3.11578 6.45293C2.65741 6.491 2.21614 6.5741 1.79675 6.79195L2.7187 8.56678C2.80504 8.52194 2.94884 8.47368 3.2813 8.44607C3.62573 8.41747 4.07548 8.41667 4.75667 8.41667V6.41667ZM2 11.1733C2 10.4921 2.00081 10.0424 2.02941 9.69797C2.05702 9.3655 2.10527 9.2217 2.15012 9.13537L0.375291 8.21342C0.157435 8.63281 0.0743365 9.07407 0.0362705 9.53244C-0.000801343 9.97885 2.25504e-06 10.5257 2.25504e-06 11.1733H2ZM1.79675 6.79195C1.18794 7.10821 0.691542 7.60461 0.375291 8.21342L2.15012 9.13537C2.27662 8.89184 2.47518 8.69328 2.7187 8.56678L1.79675 6.79195ZM5.08245 2H10.9176V0H5.08245V2ZM11.7583 2.65647L12.8632 7.07587L14.8035 6.5908L13.6986 2.1714L11.7583 2.65647ZM3.13681 7.07587L4.24166 2.65647L2.30138 2.1714L1.19653 6.5908L3.13681 7.07587ZM10.9176 2C11.1924 2 11.3458 2.0006 11.4587 2.00878C11.5592 2.01604 11.5591 2.02579 11.5287 2.01301L12.3033 0.169137C11.8554 -0.0190713 11.3458 0 10.9176 0V2ZM13.6986 2.1714C13.5948 1.75593 13.4897 1.25696 13.1984 0.868014L11.5975 2.06677C11.5777 2.04036 11.5872 2.0379 11.6186 2.13356C11.6539 2.24119 11.6917 2.38984 11.7583 2.65647L13.6986 2.1714ZM11.5287 2.01301C11.556 2.02449 11.5797 2.04305 11.5975 2.06677L13.1984 0.868014C12.9675 0.559616 12.6585 0.31837 12.3033 0.169137L11.5287 2.01301ZM5.08245 0C4.65419 0 4.14464 -0.0190713 3.69667 0.169137L4.47135 2.01301C4.44093 2.02579 4.44084 2.01604 4.54125 2.00878C4.65424 2.0006 4.80761 2 5.08245 2V0ZM4.24166 2.65647C4.30832 2.38984 4.3461 2.24119 4.38144 2.13356C4.41284 2.0379 4.42227 2.04036 4.4025 2.06677L2.80156 0.868014C2.51033 1.25696 2.40524 1.75593 2.30138 2.1714L4.24166 2.65647ZM3.69667 0.169137C3.34147 0.31837 3.03249 0.559616 2.80156 0.868014L4.4025 2.06677C4.42026 2.04305 4.44403 2.02449 4.47135 2.01301L3.69667 0.169137ZM0.371698 8.2204C0.177654 8.60123 0.113002 8.98554 0.0837064 9.28546C0.0689381 9.43665 0.0619099 9.58311 0.0564271 9.70452C0.0505666 9.8343 0.0465591 9.9317 0.0389876 10.0244L2.03235 10.1872C2.04362 10.0493 2.04929 9.90763 2.05439 9.79475C2.05987 9.67351 2.06507 9.57372 2.07423 9.47989C2.0928 9.28978 2.12283 9.18899 2.15371 9.12838L0.371698 8.2204ZM0.0389875 10.0244C-0.000766012 10.5109 -1.93831e-05 11.0874 1.00392e-06 11.6884L2 11.6883C1.99998 11.0593 2.00069 10.5747 2.03235 10.1872L0.0389875 10.0244ZM16 11.6884C16 11.0874 16.0008 10.5109 15.961 10.0244L13.9677 10.1872C13.9993 10.5747 14 11.0594 14 11.6884L16 11.6884ZM15.961 10.0244C15.9534 9.9317 15.9494 9.8343 15.9436 9.70452C15.9381 9.58311 15.9311 9.43665 15.9163 9.28546C15.887 8.98554 15.8223 8.60123 15.6283 8.2204L13.8463 9.12838C13.8772 9.18899 13.9072 9.28978 13.9258 9.47989C13.9349 9.57372 13.9401 9.67351 13.9456 9.79475C13.9507 9.90763 13.9564 10.0493 13.9677 10.1872L15.961 10.0244ZM1 16H15V14H1V16ZM14 15V20.8333H16V15H14ZM15 19.8333H1V21.8333H15V19.8333ZM13.8333 5.83333H2.16667V7.83333H13.8333V5.83333ZM1.00334e-06 11.6884L2.11596e-06 12.3913L2 12.3913L2 11.6884L1.00334e-06 11.6884ZM16 12.3913V11.6884H14V12.3913H16Z" fill="#62A1E8"/>
</svg>
